MutatorSansInstance_600-1000.ufo
<glyph name="comma" format="2">
  <advance width="302"/>
  <unicode hex="002C"/>
  <outline>
    <contour>
      <point x="218" y="0" type="line"/>
      <point x="218" y="268" type="line"/>
      <point x="84" y="268" type="line"/>
      <point x="84" y="0" type="line"/>
      <point x="145" y="-13" type="line"/>
      <point x="135" y="12" type="line"/>
      <point x="113" y="-123" type="line"/>
      <point x="161" y="-125" type="line"/>
    </contour>
  </outline>
</glyph>
<glyph name="period" format="2">
  <advance width="302"/>
  <unicode hex="002E"/>
  <outline>
    <contour>
      <point x="84" y="0" type="line"/>
      <point x="218" y="0" type="line"/>
      <point x="218" y="268" type="line"/>
      <point x="84" y="268" type="line"/>
    </contour>
  </outline>
</glyph>
<glyph name="A" format="2">
  <advance width="1254"/>
  <unicode hex="0041"/>
  <outline>
    <contour>
      <point x="36" y="0" type="line"/>
      <point x="253" y="0" type="line"/>
      <point x="633" y="760" type="line"/>
      <point x="448" y="760" type="line"/>
    </contour>
    <contour>
      <point x="228" y="162" type="line"/>
      <point x="946" y="162" type="line"/>
      <point x="946" y="306" type="line"/>
      <point x="228" y="306" type="line"/>
    </contour>
    <contour>
      <point x="919" y="0" type="line"/>
      <point x="1222" y="0" type="line"/>
      <point x="810" y="760" type="line"/>
      <point x="521" y="760" type="line"/>
    </contour>
    <contour>
      <point x="478" y="590" type="line"/>
      <point x="750" y="590" type="line"/>
      <point x="750" y="760" type="line"/>
      <point x="478" y="760" type="line"/>
    </contour>
  </outline>
</glyph>
<glyph name="B" format="2">
  <advance width="1249"/>
  <unicode hex="0042"/>
  <outline>
    <contour>
      <point x="84" y="0" type="line"/>
      <point x="352" y="0" type="line"/>
      <point x="352" y="761" type="line"/>
      <point x="84" y="761" type="line"/>
    </contour>
    <contour>
      <point x="326" y="335" type="line"/>
      <point x="821" y="335" type="line" smooth="yes"/>
      <point x="894" y="335"/>
      <point x="936" y="306"/>
      <point x="936" y="245" type="curve" smooth="yes"/>
      <point x="936" y="188"/>
      <point x="894" y="157"/>
      <point x="821" y="157" type="curve" smooth="yes"/>
      <point x="326" y="157" type="line"/>
      <point x="326" y="0" type="line"/>
      <point x="922" y="0" type="line" smooth="yes"/>
      <point x="1139" y="0"/>
      <point x="1205" y="90"/>
      <point x="1205" y="211" type="curve" smooth="yes"/>
      <point x="1205" y="323"/>
      <point x="1140" y="389"/>
      <point x="1035" y="406" type="curve"/>
      <point x="1009" y="364" type="line"/>
      <point x="1092" y="384"/>
      <point x="1163" y="442"/>
      <point x="1163" y="545" type="curve" smooth="yes"/>
      <point x="1163" y="674"/>
      <point x="1085" y="760"/>
      <point x="862" y="760" type="curve" smooth="yes"/>
      <point x="326" y="760" type="line"/>
      <point x="326" y="610" type="line"/>
      <point x="774" y="610" type="line" smooth="yes"/>
      <point x="852" y="610"/>
      <point x="894" y="580"/>
      <point x="894" y="524" type="curve" smooth="yes"/>
      <point x="894" y="458"/>
      <point x="852" y="435"/>
      <point x="774" y="435" type="curve" smooth="yes"/>
      <point x="326" y="435" type="line"/>
    </contour>
  </outline>
</glyph>
<glyph name="C" format="2">
  <advance width="1346"/>
  <unicode hex="0043"/>
  <outline>
    <contour>
      <point x="1017" y="328" type="line"/>
      <point x="991" y="212"/>
      <point x="880" y="163"/>
      <point x="715" y="163" type="curve" smooth="yes"/>
      <point x="638" y="163" type="line" smooth="yes"/>
      <point x="450" y="163"/>
      <point x="331" y="228"/>
      <point x="331" y="383" type="curve" smooth="yes"/>
      <point x="331" y="534"/>
      <point x="450" y="597"/>
      <point x="638" y="597" type="curve" smooth="yes"/>
      <point x="715" y="597" type="line" smooth="yes"/>
      <point x="878" y="597"/>
      <point x="989" y="550"/>
      <point x="1016" y="439" type="curve"/>
      <point x="1289" y="469" type="line"/>
      <point x="1246" y="673"/>
      <point x="1045" y="770"/>
      <point x="746" y="770" type="curve" smooth="yes"/>
      <point x="606" y="770" type="line" smooth="yes"/>
      <point x="268" y="770"/>
      <point x="56" y="645"/>
      <point x="56" y="383" type="curve" smooth="yes"/>
      <point x="56" y="118"/>
      <point x="268" y="-10"/>
      <point x="606" y="-10" type="curve" smooth="yes"/>
      <point x="746" y="-10" type="line" smooth="yes"/>
      <point x="1047" y="-10"/>
      <point x="1248" y="91"/>
      <point x="1290" y="301" type="curve"/>
    </contour>
  </outline>
</glyph>
<glyph name="D" format="2">
  <advance width="1213"/>
  <unicode hex="0044"/>
  <outline>
    <contour>
      <point x="84" y="0" type="line"/>
      <point x="352" y="0" type="line"/>
      <point x="352" y="760" type="line"/>
      <point x="84" y="760" type="line"/>
    </contour>
    <contour>
      <point x="314" y="593" type="line"/>
      <point x="575" y="593" type="line" smooth="yes"/>
      <point x="764" y="593"/>
      <point x="882" y="534"/>
      <point x="882" y="383" type="curve" smooth="yes"/>
      <point x="882" y="228"/>
      <point x="764" y="167"/>
      <point x="575" y="167" type="curve" smooth="yes"/>
      <point x="314" y="167" type="line"/>
      <point x="314" y="0" type="line"/>
      <point x="606" y="0" type="line" smooth="yes"/>
      <point x="944" y="0"/>
      <point x="1157" y="118"/>
      <point x="1157" y="383" type="curve" smooth="yes"/>
      <point x="1157" y="645"/>
      <point x="944" y="760"/>
      <point x="606" y="760" type="curve" smooth="yes"/>
      <point x="314" y="760" type="line"/>
    </contour>
  </outline>
</glyph>
<glyph name="E" format="2">
  <advance width="1166"/>
  <unicode hex="0045"/>
  <anchor x="562" y="803" name="top"/>
  <outline>
    <contour>
      <point x="84" y="0" type="line"/>
      <point x="352" y="0" type="line"/>
      <point x="352" y="760" type="line"/>
      <point x="84" y="760" type="line"/>
    </contour>
    <contour>
      <point x="146" y="584" type="line"/>
      <point x="1082" y="584" type="line"/>
      <point x="1082" y="760" type="line"/>
      <point x="146" y="760" type="line"/>
    </contour>
    <contour>
      <point x="146" y="0" type="line"/>
      <point x="1082" y="0" type="line"/>
      <point x="1082" y="176" type="line"/>
      <point x="146" y="176" type="line"/>
    </contour>
    <contour>
      <point x="146" y="323" type="line"/>
      <point x="906" y="323" type="line"/>
      <point x="906" y="439" type="line"/>
      <point x="146" y="439" type="line"/>
    </contour>
  </outline>
</glyph>
<glyph name="F" format="2">
  <advance width="1186"/>
  <unicode hex="0046"/>
  <outline>
    <contour>
      <point x="84" y="0" type="line"/>
      <point x="352" y="0" type="line"/>
      <point x="352" y="760" type="line"/>
      <point x="84" y="760" type="line"/>
    </contour>
    <contour>
      <point x="146" y="584" type="line"/>
      <point x="1102" y="584" type="line"/>
      <point x="1102" y="760" type="line"/>
      <point x="146" y="760" type="line"/>
    </contour>
    <contour>
      <point x="146" y="259" type="line"/>
      <point x="1026" y="259" type="line"/>
      <point x="1026" y="411" type="line"/>
      <point x="146" y="411" type="line"/>
    </contour>
  </outline>
</glyph>
<glyph name="G" format="2">
  <advance width="1395"/>
  <unicode hex="0047"/>
  <outline>
    <contour>
      <point x="572" y="309" type="line"/>
      <point x="1036" y="309" type="line"/>
      <point x="1036" y="216" type="line"/>
      <point x="1163" y="0" type="line"/>
      <point x="1316" y="0" type="line"/>
      <point x="1316" y="384" type="line"/>
      <point x="572" y="384" type="line"/>
    </contour>
    <contour>
      <point x="1037" y="334" type="line"/>
      <point x="1011" y="218"/>
      <point x="900" y="163"/>
      <point x="735" y="163" type="curve" smooth="yes"/>
      <point x="638" y="163" type="line" smooth="yes"/>
      <point x="450" y="163"/>
      <point x="331" y="228"/>
      <point x="331" y="383" type="curve" smooth="yes"/>
      <point x="331" y="534"/>
      <point x="450" y="597"/>
      <point x="638" y="597" type="curve" smooth="yes"/>
      <point x="735" y="597" type="line" smooth="yes"/>
      <point x="898" y="597"/>
      <point x="1009" y="550"/>
      <point x="1036" y="439" type="curve"/>
      <point x="1309" y="469" type="line"/>
      <point x="1266" y="673"/>
      <point x="1065" y="770"/>
      <point x="766" y="770" type="curve" smooth="yes"/>
      <point x="606" y="770" type="line" smooth="yes"/>
      <point x="268" y="770"/>
      <point x="56" y="645"/>
      <point x="56" y="383" type="curve" smooth="yes"/>
      <point x="56" y="118"/>
      <point x="268" y="-10"/>
      <point x="606" y="-10" type="curve" smooth="yes"/>
      <point x="658" y="-10" type="line" smooth="yes"/>
      <point x="959" y="-10"/>
      <point x="1156" y="97"/>
      <point x="1198" y="307" type="curve"/>
    </contour>
  </outline>
</glyph>
<glyph name="H" format="2">
  <advance width="1272"/>
  <unicode hex="0048"/>
  <outline>
    <contour>
      <point x="84" y="0" type="line"/>
      <point x="352" y="0" type="line"/>
      <point x="352" y="760" type="line"/>
      <point x="84" y="760" type="line"/>
    </contour>
    <contour>
      <point x="195" y="296" type="line"/>
      <point x="1080" y="296" type="line"/>
      <point x="1080" y="466" type="line"/>
      <point x="195" y="466" type="line"/>
    </contour>
    <contour>
      <point x="920" y="0" type="line"/>
      <point x="1188" y="0" type="line"/>
      <point x="1188" y="760" type="line"/>
      <point x="920" y="760" type="line"/>
    </contour>
  </outline>
</glyph>
<glyph name="I" format="2">
  <advance width="984"/>
  <unicode hex="0049"/>
  <outline>
    <contour>
      <point x="360" y="0" type="line"/>
      <point x="628" y="0" type="line"/>
      <point x="628" y="760" type="line"/>
      <point x="360" y="760" type="line"/>
    </contour>
    <contour>
      <point x="84" y="584" type="line"/>
      <point x="900" y="584" type="line"/>
      <point x="900" y="760" type="line"/>
      <point x="84" y="760" type="line"/>
    </contour>
    <contour>
      <point x="84" y="0" type="line"/>
      <point x="900" y="0" type="line"/>
      <point x="900" y="176" type="line"/>
      <point x="84" y="176" type="line"/>
    </contour>
  </outline>
</glyph>
<glyph name="J" format="2">
  <advance width="884"/>
  <unicode hex="004A"/>
  <outline>
    <contour>
      <point x="249" y="-10" type="curve" smooth="yes"/>
      <point x="587" y="-10"/>
      <point x="800" y="124"/>
      <point x="800" y="401" type="curve" smooth="yes"/>
      <point x="800" y="760" type="line"/>
      <point x="525" y="760" type="line"/>
      <point x="525" y="419" type="line" smooth="yes"/>
      <point x="525" y="252"/>
      <point x="419" y="181"/>
      <point x="250" y="181" type="curve" smooth="yes"/>
      <point x="215" y="181"/>
      <point x="165" y="184"/>
      <point x="115" y="193" type="curve"/>
      <point x="84" y="3" type="line"/>
      <point x="135" y="-6"/>
      <point x="190" y="-10"/>
    </contour>
  </outline>
</glyph>
<glyph name="K" format="2">
  <advance width="1197"/>
  <unicode hex="004B"/>
  <outline>
    <contour>
      <point x="84" y="0" type="line"/>
      <point x="352" y="0" type="line"/>
      <point x="352" y="760" type="line"/>
      <point x="84" y="760" type="line"/>
    </contour>
    <contour>
      <point x="248" y="305" type="line"/>
      <point x="383" y="305" type="line"/>
      <point x="794" y="0" type="line"/>
      <point x="1152" y="0" type="line"/>
      <point x="595" y="450" type="line"/>
      <point x="389" y="402" type="line"/>
      <point x="248" y="402" type="line"/>
    </contour>
    <contour>
      <point x="358" y="381" type="line"/>
      <point x="501" y="312" type="line"/>
      <point x="1144" y="760" type="line"/>
      <point x="828" y="760" type="line"/>
    </contour>
  </outline>
</glyph>
<glyph name="L" format="2">
  <advance width="1030"/>
  <unicode hex="004C"/>
  <outline>
    <contour>
      <point x="84" y="0" type="line"/>
      <point x="352" y="0" type="line"/>
      <point x="352" y="760" type="line"/>
      <point x="84" y="760" type="line"/>
    </contour>
    <contour>
      <point x="146" y="0" type="line"/>
      <point x="1002" y="0" type="line"/>
      <point x="1002" y="182" type="line"/>
      <point x="146" y="182" type="line"/>
    </contour>
  </outline>
</glyph>
<glyph name="M" format="2">
  <advance width="1288"/>
  <unicode hex="004D"/>
  <outline>
    <contour>
      <point x="84" y="0" type="line"/>
      <point x="292" y="0" type="line"/>
      <point x="292" y="760" type="line"/>
      <point x="84" y="760" type="line"/>
    </contour>
    <contour>
      <point x="1204" y="0" type="line"/>
      <point x="1204" y="760" type="line"/>
      <point x="996" y="760" type="line"/>
      <point x="996" y="0" type="line"/>
    </contour>
    <contour>
      <point x="1073" y="508" type="line"/>
      <point x="996" y="760" type="line"/>
      <point x="620" y="433" type="line"/>
      <point x="669" y="433" type="line"/>
      <point x="292" y="760" type="line"/>
      <point x="215" y="508" type="line"/>
      <point x="598" y="177" type="line"/>
      <point x="691" y="177" type="line"/>
    </contour>
  </outline>
</glyph>
<glyph name="N" format="2">
  <advance width="1273"/>
  <unicode hex="004E"/>
  <outline>
    <contour>
      <point x="84" y="0" type="line"/>
      <point x="292" y="0" type="line"/>
      <point x="292" y="760" type="line"/>
      <point x="84" y="760" type="line"/>
    </contour>
    <contour>
      <point x="216" y="538" type="line"/>
      <point x="980" y="0" type="line"/>
      <point x="1058" y="222" type="line"/>
      <point x="292" y="760" type="line"/>
    </contour>
    <contour>
      <point x="981" y="0" type="line"/>
      <point x="1189" y="0" type="line"/>
      <point x="1189" y="760" type="line"/>
      <point x="981" y="760" type="line"/>
    </contour>
  </outline>
</glyph>
<glyph name="O" format="2">
  <advance width="1357"/>
  <unicode hex="004F"/>
  <outline>
    <contour>
      <point x="606" y="-10" type="curve" smooth="yes"/>
      <point x="750" y="-10" type="line" smooth="yes"/>
      <point x="1088" y="-10"/>
      <point x="1301" y="118"/>
      <point x="1301" y="383" type="curve" smooth="yes"/>
      <point x="1301" y="645"/>
      <point x="1088" y="770"/>
      <point x="750" y="770" type="curve" smooth="yes"/>
      <point x="606" y="770" type="line" smooth="yes"/>
      <point x="268" y="770"/>
      <point x="56" y="645"/>
      <point x="56" y="383" type="curve" smooth="yes"/>
      <point x="56" y="118"/>
      <point x="268" y="-10"/>
    </contour>
    <contour>
      <point x="638" y="163" type="line" smooth="yes"/>
      <point x="450" y="163"/>
      <point x="331" y="228"/>
      <point x="331" y="383" type="curve" smooth="yes"/>
      <point x="331" y="534"/>
      <point x="450" y="597"/>
      <point x="638" y="597" type="curve" smooth="yes"/>
      <point x="719" y="597" type="line" smooth="yes"/>
      <point x="908" y="597"/>
      <point x="1026" y="534"/>
      <point x="1026" y="383" type="curve" smooth="yes"/>
      <point x="1026" y="228"/>
      <point x="908" y="163"/>
      <point x="719" y="163" type="curve" smooth="yes"/>
    </contour>
  </outline>
</glyph>
<glyph name="P" format="2">
  <advance width="1171"/>
  <unicode hex="0050"/>
  <outline>
    <contour>
      <point x="84" y="0" type="line"/>
      <point x="352" y="0" type="line"/>
      <point x="352" y="760" type="line"/>
      <point x="84" y="760" type="line"/>
    </contour>
    <contour>
      <point x="242" y="572" type="line"/>
      <point x="688" y="572" type="line" smooth="yes"/>
      <point x="848" y="572"/>
      <point x="900" y="531"/>
      <point x="900" y="446" type="curve" smooth="yes"/>
      <point x="900" y="357"/>
      <point x="848" y="318"/>
      <point x="688" y="318" type="curve" smooth="yes"/>
      <point x="242" y="318" type="line"/>
      <point x="242" y="130" type="line"/>
      <point x="664" y="130" type="line" smooth="yes"/>
      <point x="1040" y="130"/>
      <point x="1143" y="246"/>
      <point x="1143" y="446" type="curve" smooth="yes"/>
      <point x="1143" y="644"/>
      <point x="1040" y="760"/>
      <point x="665" y="760" type="curve" smooth="yes"/>
      <point x="242" y="760" type="line"/>
    </contour>
  </outline>
</glyph>
<glyph name="Q" format="2">
  <advance width="1357"/>
  <unicode hex="0051"/>
  <outline>
    <contour>
      <point x="619" y="-130" type="line"/>
      <point x="889" y="-130" type="line"/>
      <point x="765" y="107" type="line"/>
      <point x="500" y="100" type="line"/>
    </contour>
    <component base="O"/>
  </outline>
</glyph>
<glyph name="R" format="2">
  <advance width="1195"/>
  <unicode hex="0052"/>
  <outline>
    <contour>
      <point x="842" y="0" type="line"/>
      <point x="1128" y="0" type="line"/>
      <point x="1043" y="89" type="line" smooth="yes"/>
      <point x="983" y="156"/>
      <point x="931" y="201"/>
      <point x="857" y="200" type="curve"/>
      <point x="673" y="200" type="line"/>
    </contour>
    <contour>
      <point x="84" y="0" type="line"/>
      <point x="352" y="0" type="line"/>
      <point x="352" y="760" type="line"/>
      <point x="84" y="760" type="line"/>
    </contour>
    <contour>
      <point x="242" y="572" type="line"/>
      <point x="692" y="572" type="line" smooth="yes"/>
      <point x="848" y="572"/>
      <point x="898" y="531"/>
      <point x="898" y="446" type="curve" smooth="yes"/>
      <point x="898" y="357"/>
      <point x="848" y="318"/>
      <point x="692" y="318" type="curve" smooth="yes"/>
      <point x="242" y="318" type="line"/>
      <point x="242" y="166" type="line"/>
      <point x="664" y="166" type="line" smooth="yes"/>
      <point x="1040" y="166"/>
      <point x="1143" y="276"/>
      <point x="1143" y="464" type="curve" smooth="yes"/>
      <point x="1143" y="650"/>
      <point x="1040" y="760"/>
      <point x="665" y="760" type="curve" smooth="yes"/>
      <point x="242" y="760" type="line"/>
    </contour>
  </outline>
</glyph>
<glyph name="S" format="2">
  <advance width="1212"/>
  <unicode hex="0053"/>
  <outline>
    <contour>
      <point x="1150" y="228" type="curve" smooth="yes"/>
      <point x="1150" y="404"/>
      <point x="1043" y="459"/>
      <point x="721" y="467" type="curve" smooth="yes"/>
      <point x="528" y="473" type="line" smooth="yes"/>
      <point x="363" y="477"/>
      <point x="301" y="490"/>
      <point x="301" y="538" type="curve" smooth="yes"/>
      <point x="301" y="584"/>
      <point x="360" y="609"/>
      <point x="521" y="609" type="curve" smooth="yes"/>
      <point x="656" y="609" type="line" smooth="yes"/>
      <point x="829" y="609"/>
      <point x="971" y="586"/>
      <point x="1078" y="559" type="curve"/>
      <point x="1108" y="711" type="line"/>
      <point x="999" y="742"/>
      <point x="826" y="769"/>
      <point x="688" y="769" type="curve" smooth="yes"/>
      <point x="598" y="769" type="line" smooth="yes"/>
      <point x="224" y="769"/>
      <point x="74" y="694"/>
      <point x="74" y="525" type="curve" smooth="yes"/>
      <point x="74" y="366"/>
      <point x="198" y="307"/>
      <point x="504" y="298" type="curve" smooth="yes"/>
      <point x="689" y="293" type="line" smooth="yes"/>
      <point x="854" y="288"/>
      <point x="915" y="279"/>
      <point x="915" y="226" type="curve" smooth="yes"/>
      <point x="915" y="177"/>
      <point x="852" y="152"/>
      <point x="667" y="152" type="curve" smooth="yes"/>
      <point x="539" y="152" type="line" smooth="yes"/>
      <point x="365" y="152"/>
      <point x="212" y="173"/>
      <point x="95" y="203" type="curve"/>
      <point x="68" y="49" type="line"/>
      <point x="189" y="16"/>
      <point x="372" y="-9"/>
      <point x="509" y="-9" type="curve" smooth="yes"/>
      <point x="608" y="-9" type="line" smooth="yes"/>
      <point x="1015" y="-9"/>
      <point x="1150" y="81"/>
    </contour>
  </outline>
</glyph>
<glyph name="T" format="2">
  <advance width="1212"/>
  <unicode hex="0054"/>
  <outline>
    <contour>
      <point x="472" y="0" type="line"/>
      <point x="740" y="0" type="line"/>
      <point x="740" y="760" type="line"/>
      <point x="472" y="760" type="line"/>
    </contour>
    <contour>
      <point x="28" y="560" type="line"/>
      <point x="1184" y="560" type="line"/>
      <point x="1184" y="760" type="line"/>
      <point x="28" y="760" type="line"/>
    </contour>
  </outline>
</glyph>
<glyph name="U" format="2">
  <advance width="1269"/>
  <unicode hex="0055"/>
  <outline>
    <contour>
      <point x="634" y="-10" type="curve" smooth="yes"/>
      <point x="961" y="-10"/>
      <point x="1167" y="124"/>
      <point x="1167" y="401" type="curve" smooth="yes"/>
      <point x="1167" y="760" type="line"/>
      <point x="892" y="760" type="line"/>
      <point x="892" y="401" type="line" smooth="yes"/>
      <point x="892" y="246"/>
      <point x="793" y="181"/>
      <point x="634" y="181" type="curve" smooth="yes"/>
      <point x="477" y="181"/>
      <point x="377" y="246"/>
      <point x="377" y="401" type="curve" smooth="yes"/>
      <point x="377" y="760" type="line"/>
      <point x="102" y="760" type="line"/>
      <point x="102" y="401" type="line" smooth="yes"/>
      <point x="102" y="124"/>
      <point x="307" y="-10"/>
    </contour>
  </outline>
</glyph>
<glyph name="V" format="2">
  <advance width="1260"/>
  <unicode hex="0056"/>
  <outline>
    <contour>
      <point x="1232" y="760" type="line"/>
      <point x="1016" y="760" type="line"/>
      <point x="617" y="0" type="line"/>
      <point x="803" y="0" type="line"/>
    </contour>
    <contour>
      <point x="332" y="760" type="line"/>
      <point x="28" y="760" type="line"/>
      <point x="453" y="0" type="line"/>
      <point x="743" y="0" type="line"/>
    </contour>
    <contour>
      <point x="781" y="170" type="line"/>
      <point x="505" y="170" type="line"/>
      <point x="505" y="0" type="line"/>
      <point x="781" y="0" type="line"/>
    </contour>
  </outline>
</glyph>
<glyph name="W" format="2">
  <advance width="1368"/>
  <unicode hex="0057"/>
  <outline>
    <contour>
      <point x="1339" y="760" type="line"/>
      <point x="1096" y="760" type="line"/>
      <point x="933" y="187" type="line"/>
      <point x="952" y="187" type="line"/>
      <point x="784" y="760" type="line"/>
      <point x="609" y="760" type="line"/>
      <point x="452" y="183" type="line"/>
      <point x="473" y="183" type="line"/>
      <point x="305" y="760" type="line"/>
      <point x="28" y="760" type="line"/>
      <point x="255" y="0" type="line"/>
      <point x="527" y="0" type="line"/>
      <point x="686" y="544" type="line"/>
      <point x="642" y="543" type="line"/>
      <point x="820" y="0" type="line"/>
      <point x="1119" y="0" type="line"/>
    </contour>
  </outline>
</glyph>
<glyph name="X" format="2">
  <advance width="1176"/>
  <unicode hex="0058"/>
  <outline>
    <contour>
      <point x="830" y="0" type="line"/>
      <point x="1148" y="0" type="line"/>
      <point x="693" y="434" type="line"/>
      <point x="350" y="760" type="line"/>
      <point x="32" y="760" type="line"/>
      <point x="467" y="365" type="line"/>
    </contour>
    <contour>
      <point x="29" y="-1" type="line"/>
      <point x="318" y="0" type="line"/>
      <point x="608" y="333" type="line"/>
      <point x="689" y="332" type="line"/>
      <point x="1144" y="760" type="line"/>
      <point x="854" y="760" type="line"/>
      <point x="553" y="435" type="line"/>
      <point x="468" y="436" type="line"/>
    </contour>
  </outline>
</glyph>
<glyph name="Y" format="2">
  <advance width="1122"/>
  <unicode hex="0059"/>
  <outline>
    <contour>
      <point x="1098" y="760" type="line"/>
      <point x="868" y="760" type="line"/>
      <point x="519" y="206" type="line"/>
      <point x="691" y="194" type="line"/>
    </contour>
    <contour>
      <point x="302" y="760" type="line"/>
      <point x="24" y="760" type="line"/>
      <point x="429" y="194" type="line"/>
      <point x="673" y="206" type="line"/>
    </contour>
    <contour>
      <point x="695" y="312" type="line"/>
      <point x="427" y="312" type="line"/>
      <point x="427" y="0" type="line"/>
      <point x="695" y="0" type="line"/>
    </contour>
  </outline>
</glyph>
<glyph name="Z" format="2">
  <advance width="1248"/>
  <unicode hex="005A"/>
  <outline>
    <contour>
      <point x="84" y="182" type="line"/>
      <point x="410" y="114" type="line"/>
      <point x="1164" y="578" type="line"/>
      <point x="838" y="646" type="line"/>
    </contour>
    <contour>
      <point x="84" y="578" type="line"/>
      <point x="1164" y="578" type="line"/>
      <point x="1164" y="760" type="line"/>
      <point x="84" y="760" type="line"/>
    </contour>
    <contour>
      <point x="84" y="0" type="line"/>
      <point x="1164" y="0" type="line"/>
      <point x="1164" y="182" type="line"/>
      <point x="84" y="182" type="line"/>
    </contour>
  </outline>
</glyph>
